<?xml version="1.0" encoding="UTF-8"?>
<svg width="407px" height="137px" viewBox="0 0 407 137" version="1.1" xmlns="http://www.w3.org/2000/svg" xmlns:xlink="http://www.w3.org/1999/xlink">
    <!-- Generator: Sketch 53.1 (72631) - https://sketchapp.com -->
    <title>yelp_logo_vector 2</title>
    <desc>Created with Sketch.</desc>
    <defs>
        <filter x="-3.1%" y="-10.1%" width="106.2%" height="120.2%" filterUnits="objectBoundingBox" id="filter-1">
            <feOffset dx="0" dy="2" in="SourceAlpha" result="shadowOffsetOuter1"></feOffset>
            <feGaussianBlur stdDeviation="2" in="shadowOffsetOuter1" result="shadowBlurOuter1"></feGaussianBlur>
            <feColorMatrix values="0 0 0 0 0   0 0 0 0 0   0 0 0 0 0  0 0 0 0.5 0" type="matrix" in="shadowBlurOuter1" result="shadowMatrixOuter1"></feColorMatrix>
            <feMerge>
                <feMergeNode in="shadowMatrixOuter1"></feMergeNode>
                <feMergeNode in="SourceGraphic"></feMergeNode>
            </feMerge>
        </filter>
    </defs>
    <g id="Page-1" stroke="none" stroke-width="1" fill="none" fill-rule="evenodd">
        <g id="yelp_logo_vector" filter="url(#filter-1)" transform="translate(9.000000, 9.000000)">
            <g id="Yelp_Logos">
                <path d="M386.186559,82.3122389 C388.844109,78.9364117 388.970564,75.0299527 386.53353,71.5935456 C384.096495,68.1571384 379.332732,65.5246332 373.462532,64.3703757 L372.770067,64.2392217 C378.880625,63.3107488 384.008523,60.8008036 386.792425,57.3757177 C389.576328,53.9506318 389.734611,49.9568923 387.225255,46.4547432 C383.083835,40.6473399 376.868228,35.4691313 369.026434,31.2933442 C365.120537,29.2103789 360.098454,28.0590435 354.895839,28.0538411 L354.787641,28.0538411 C347.415489,28.0360119 340.56039,30.3469835 336.697018,34.1525008 L336.697018,12.9842498 C336.714284,9.54196362 334.468704,6.23726753 330.456711,3.80073245 C326.444717,1.36419736 320.996749,-0.00349683346 315.31719,6.71456854e-06 L315.187353,6.71456854e-06 C308.20718,0.235706533 301.287517,0.917107068 294.543268,2.03289326 C288.291246,3.04167556 282.206335,4.39832484 276.366087,6.08555097 C270.972455,7.64121978 266.898531,10.4935011 265.130915,13.9516441 C263.3633,17.4097871 264.063194,21.1584214 267.061101,24.2897221 L284.50254,42.6512781 C278.951606,40.8798403 272.399212,40.6704101 266.571656,42.0781642 C260.7441,43.4859183 256.225832,46.3696721 254.207237,49.9696697 C253.990842,50.3631316 253.774447,50.7565935 253.579692,51.1500554 C250.560962,49.4007789 247.0977,47.9571389 243.322568,46.8744359 C237.669493,45.2631855 231.500549,44.4258489 225.253584,44.4218567 C220.55731,44.4141525 215.894076,44.8977772 211.469221,45.851435 C203.331217,43.2645461 187.155276,47.6553738 180,51.1500554 C171.680248,45.2139205 165.130721,42.3809947 160.351419,42.6512781 C143.890237,43.5822054 134.780373,50.2929333 131.909652,50.6123241 C122.727016,51.633966 121.037795,44.648039 109.482249,44.7103954 C99.6363475,44.7644138 90.1132601,46.8455949 82.4761508,50.6123241 C77.3229939,46.2668064 68.5549056,44.0640956 59.8405738,44.9258358 C51.1262421,45.787576 43.9680556,49.5651996 41.3610973,54.6780972 L40.3873198,56.5929452 L37.2279525,52.6583261 C34.5556426,49.2708221 29.7493874,46.6762878 23.8894721,45.4578875 C21.2542018,44.9099591 14.4497135,44.4268783 9.25280241,47.3465902 C2.89360941,50.9192916 -1.50241868,58.390025 1.59308127,62.2405578 L23.8894721,93 C17.3924336,94.5906937 11.2073373,97.3243036 9.25280241,101.402658 C7.29826755,105.481012 10.0803126,110.290788 14.1603053,113.743529 C17.3845911,116.366608 21.3324802,118.8295 33.3856827,119 L48.4245702,113.743529 C65.2168236,113.743529 67.7943331,98.0455562 76.9822504,106.523262 C87.5420339,116.266791 92.0332269,99.406707 103.125,106.352762 C114.216773,113.298817 122.068136,110.57592 128.971137,106.352762 C132.22042,109.986709 137.592767,110.636819 144.276708,111.457155 C150.960648,112.277491 159.555816,106.581491 164.881746,104 C182.052367,110.366336 192.591786,113.614179 196.5,113.743529 C203.10501,113.962135 212.689538,111.555379 225.253584,106.523262 C227.657378,106.523262 237.999714,111.754264 243.322568,111.457155 C246.816539,111.262131 256.148461,106.609109 260.19605,104 C262.341325,102.658929 276.712622,105.604284 278.291149,104 C283.628004,105.771192 288.953444,101.319802 294.543268,99.8631793 C295.900599,100.869816 299.690846,105.274566 309.993873,106.352762 C311.167098,106.468575 312.354073,106.525601 313.542751,106.523262 C325.099293,106.554953 334.592357,100.999139 334.944218,93.9980577 L334.944218,93.5521342 L335.333729,93.9324807 C338.607327,97.1038019 343.978623,99.2653055 350.071407,99.8631793 C356.16419,100.461053 362.386397,99.4371991 367.143797,97.0539452 C375.183424,93.0371105 381.681843,88.0064444 386.186559,82.3122389 Z" id="eksw" fill="#FFFFFF" fill-rule="nonzero"></path>
                <path d="M35.4837492,90.6006428 L17.7401748,66.7017119 C16.6840299,65.4586164 16.7631051,63.9330052 17.9455138,62.7400703 C19.1279225,61.5471353 21.218729,60.8835476 23.3748305,61.0168942 C25.5309319,61.1502408 27.3968665,62.0585378 28.2202094,63.3755209 L41.9620414,81.8731147 L50.4034526,63.9216119 C50.953843,62.5682427 52.5834427,61.5201542 54.6534238,61.1882132 C56.7234048,60.8562722 58.9039117,61.2933741 60.3401523,62.3281684 C61.7763929,63.3629626 62.2394996,64.8305527 61.5479274,66.1556209 C61.5479274,66.1556209 52.0494522,86.5794268 46.3413066,98.3154203 C44.4536923,102.197631 39.5005924,104.113915 32.0860434,103.994767 C24.6714945,103.87562 23.6144305,101.016089 24.4298798,99.1593792 C25.2016292,97.4284719 27.7410546,96.3056086 30.4702456,96.4884975 C37.1297488,96.5083553 37.9754,93.8672603 35.4837492,90.6006428 Z" id="Path" fill="#050505" fill-rule="nonzero"></path>
                <path d="M125.462121,94.2333039 C125.462121,96.3135927 122.67238,98 119.231061,98 C115.789741,98 113,96.3135927 113,94.2333039 L113,56.7666966 C113,55.4209855 114.187633,54.1774972 116.11553,53.5046417 C118.043427,52.8317861 120.418694,52.8317861 122.346591,53.5046417 C124.274488,54.1774972 125.462121,55.4209855 125.462121,56.7666966 L125.462121,94.2333039 Z" id="Path" fill="#050505"></path>
                <path d="M76.6271264,78.8547356 L97.5577393,78.8547356 C100.824245,78.6763083 103.284166,76.8448822 103.116959,74.7158629 L103.116959,74.7158629 C103.116959,74.646717 103.116959,74.5874492 103.116959,74.5281813 C102.099287,60.9657176 88.7176691,59 82.6420195,59 C76.5663699,59 62,61.4201046 62,76.4938989 C62.1063239,82.1638582 63.9745861,93 82.3078588,93 C98.1501152,93 101.689181,87.0732132 101.689181,85.5322487 C101.689181,83.2899477 98.8184366,81.3933759 95.6135314,82.1144683 C92.985813,82.6873911 89.3859906,86.0656595 83.5837452,86.0656595 C75.2752944,86.0656595 74.1968666,81.1266705 74.1968666,80.0697269 C74.1664883,79.2300988 74.865188,78.8942475 76.6271264,78.8547356 Z M74.1361101,72.2167345 C74.5158382,67.0900639 80.5003531,66.2405578 83.2495845,66.2405578 C85.9988159,66.2405578 91.9529526,67.0999419 92.2719242,72.3056363 C92.2719242,72.5822196 92.0440873,72.7402673 91.8010613,72.7402673 L74.6373512,72.7402673 C74.3639469,72.7402673 74.1057318,72.5624637 74.1361101,72.2167345 Z" id="Shape" fill="#050505" fill-rule="nonzero"></path>
                <path d="M233.642311,97.1330694 L231.652279,69.5951296 C231.265391,69.139758 232.308583,59.5057759 230.440008,63.5129487 C227.468158,69.8861003 216.94778,91.5962517 217.697048,90.8403135 C218.272902,90.2593338 214.947854,91.562594 212.26875,90.3476456 C209.446807,89.0679209 207.273792,85.2845786 208.379835,85.3529831 C210.535936,85.4863298 225.986909,47.1703344 226.810251,48.4873174 C233.944186,50.6953093 237.771825,52.9841031 238.293167,55.3536988 C239.538968,61.016091 240.203204,70.1934926 240.285874,82.8859036 L248.727285,64.9344008 C249.277676,63.5810316 250.907275,62.532943 252.977256,62.2010021 C255.047237,61.8690611 257.227744,62.306163 258.663985,63.3409573 C260.100225,64.3757515 260.563332,65.8433416 259.87176,67.1684097 C259.87176,67.1684097 246.079608,96.745774 243.709887,101.827657 C242.685451,104.024568 238.497342,102.578376 237.226013,101.985408 C234.547912,100.736301 233.753124,100.365685 233.642311,97.1330694 Z" id="Path" fill="#050505" fill-rule="nonzero" transform="translate(234.136697, 75.728578) rotate(155.000000) translate(-234.136697, -75.728578) "></path>
                <path d="M176.064784,71.0975851 C176.064784,66.1407867 175.162926,59.3440409 165.798635,56.367951 C160.460285,54.6496116 154.211984,54.7543809 149.009046,56.649473 C148.012727,57.0320201 147.049235,57.4516093 146.123101,57.9062678 C145.46512,56.0375888 142.813074,54.7980029 139.963549,55.0272471 C137.114023,55.2564913 134.977007,56.8813568 135.000187,58.8011056 L135.000187,96.4144579 C135.155265,98.4239155 137.636235,100 140.644314,100 C143.652394,100 146.133363,98.4239155 146.288442,96.4144579 L146.288442,86.5410786 C148.80408,88.4430471 152.344633,89.6000842 156.133724,89.7584731 C177.597942,90.1304843 176.185031,74.5160667 176.064784,71.0975851 Z M164.881746,73.9630771 C164.881746,76.9793844 164.881746,82.3182483 156.749993,82.3182483 C148.618241,82.3182483 148.633272,76.9592757 148.633272,73.9630771 L148.633272,71.2383461 C148.633272,68.2220388 148.633272,62.8831748 156.749993,62.8831748 C164.866715,62.8831748 164.881746,68.2522019 164.881746,71.2383461 L164.881746,73.9630771 Z" id="Shape" fill="#050505" fill-rule="nonzero"></path>
                <path d="M292.475241,50.6623439 L316.278253,57.0748194 C318.369672,57.6209349 319.607864,58.8356747 319.366681,60.1047521 C319.125498,61.3738294 317.45751,62.4206304 315.206209,62.715794 L289.458982,66.252675 C287.927131,66.4667221 286.302217,66.3036658 285.005323,65.8057608 C283.708428,65.3078557 282.867207,64.5241107 282.699653,63.6576263 C281.916726,59.8649389 282.654888,56.0237137 284.861911,52.4057357 C285.359299,51.577474 286.48479,50.9092535 287.946054,50.5746359 C289.407317,50.2400182 291.060147,50.2720253 292.475241,50.6623439 Z" id="Path" fill="#D32323" transform="translate(300.896519, 58.344786) rotate(5.000000) translate(-300.896519, -58.344786) "></path>
                <path d="M303.623259,86.9493889 L319.076997,73.2840425 C320.407558,72.078758 322.549107,71.6741737 324.417853,72.2750412 C326.286599,72.8759086 327.474829,74.3511343 327.381205,75.9541378 L326.574511,94.3425302 C326.530529,95.4356077 325.893904,96.4598913 324.829136,97.150713 C323.764368,97.8415348 322.375918,98.1311193 321.022554,97.9446399 C315.080266,97.1519274 309.427768,95.3335414 304.461589,92.6170441 C303.32497,92.0010262 302.579788,91.0227439 302.418964,89.9354663 C302.25814,88.8481888 302.697486,87.7588201 303.623259,86.9493889 L303.623259,86.9493889 Z" id="Path" fill="#D32323"></path>
                <path d="M343.319948,70.1803136 L369.112737,75.5795334 C370.648682,75.8931181 371.898372,76.6186172 372.539638,77.5689975 C373.180904,78.5193779 373.150996,79.6016415 372.457624,80.5367818 C369.414405,84.6418903 365.013035,88.2701813 359.561229,91.167989 C358.322284,91.8324832 356.69622,92.119316 355.10319,91.9543735 C353.510161,91.789431 352.106451,91.1888951 351.254761,90.3079363 L336.87175,75.5078624 C335.606522,74.2299824 335.72787,72.5787522 337.174867,71.3832326 C338.621864,70.187713 341.08195,69.7061434 343.319948,70.1803136 Z" id="Path" fill="#D32323"></path>
                <path d="M374.345479,57.0886628 L344.270975,62.8233865 C341.651987,63.3399344 338.829529,62.6987061 337.226703,61.2230133 C335.623876,59.7473204 335.588745,57.7576184 337.139022,56.2571278 L354.689642,38.9095885 C355.723546,37.8781168 357.374624,37.1949581 359.218695,37.0356237 C361.062766,36.8762892 362.920084,37.2563097 364.313484,38.0780535 C370.440202,41.7280834 375.28177,46.2371214 378.491464,51.282255 C379.208595,52.4145108 379.165546,53.6974447 378.373183,54.8071393 C377.580821,55.9168339 376.114878,56.7472282 374.345479,57.0886628 L374.345479,57.0886628 Z" id="Path" fill="#D32323"></path>
                <path d="M306.180406,9.53632664 C301.402813,10.3092289 296.752562,11.3458475 292.288179,12.6331354 C290.830876,13.0535343 289.731146,13.8239868 289.255842,14.7575395 C288.780537,15.6910921 288.973102,16.702419 289.786809,17.5461176 L316.185888,45.2078377 C317.472809,46.6044288 320.162842,47.2938793 322.716167,46.8815359 C325.269491,46.4691925 327.033937,45.060376 326.999505,43.461517 L326.999505,11.503848 C327.00468,10.5270347 326.333547,9.59354744 325.148952,8.92988922 C323.964356,8.26623099 322.374562,7.93305606 320.76532,8.01120655 C315.835502,8.24224011 310.952431,8.75285477 306.180406,9.53632664 L306.180406,9.53632664 Z" id="Path" fill="#D32323"></path>
            </g>
        </g>
        <path d="M198.737269,97.8547356 L215.532654,97.8547356 C218.153802,97.6763083 220.12772,95.8448822 219.993547,93.7158629 L219.993547,93.7158629 C219.993547,93.646717 219.993547,93.5874492 219.993547,93.5281813 C219.176936,79.9657176 208.439102,78 203.563809,78 C198.688516,78 187,80.4201046 187,95.4938989 C187.085318,101.163858 188.58447,112 203.295668,112 C216.007995,112 218.847853,106.073213 218.847853,104.532249 C218.847853,102.289948 216.544277,100.393376 213.97256,101.114468 C211.863996,101.687391 208.975385,105.06566 204.319479,105.06566 C197.652516,105.06566 196.787151,100.126671 196.787151,99.0697269 C196.762775,98.2300988 197.323434,97.8942475 198.737269,97.8547356 Z M196.738398,91.2167345 C197.043104,86.0900639 201.845268,85.2405578 204.051338,85.2405578 C206.257409,85.2405578 211.035196,86.0999419 211.291149,91.3056363 C211.291149,91.5822196 211.108325,91.7402673 210.913314,91.7402673 L197.14061,91.7402673 C196.921222,91.7402673 196.714022,91.5624637 196.738398,91.2167345 Z" id="Shape" fill="#050505" fill-rule="nonzero"></path>
        <path d="M277.737269,93.8547356 L294.532654,93.8547356 C297.153802,93.6763083 299.12772,91.8448822 298.993547,89.7158629 L298.993547,89.7158629 C298.993547,89.646717 298.993547,89.5874492 298.993547,89.5281813 C298.176936,75.9657176 287.439102,74 282.563809,74 C277.688516,74 266,76.4201046 266,91.4938989 C266.085318,97.1638582 267.58447,108 282.295668,108 C295.007995,108 297.847853,102.073213 297.847853,100.532249 C297.847853,98.2899477 295.544277,96.3933759 292.97256,97.1144683 C290.863996,97.6873911 287.975385,101.06566 283.319479,101.06566 C276.652516,101.06566 275.787151,96.1266705 275.787151,95.0697269 C275.762775,94.2300988 276.323434,93.8942475 277.737269,93.8547356 Z M275.738398,87.2167345 C276.043104,82.0900639 280.845268,81.2405578 283.051338,81.2405578 C285.257409,81.2405578 290.035196,82.0999419 290.291149,87.3056363 C290.291149,87.5822196 290.108325,87.7402673 289.913314,87.7402673 L276.14061,87.7402673 C275.921222,87.7402673 275.714022,87.5624637 275.738398,87.2167345 Z" id="Shape" fill="#050505" fill-rule="nonzero"></path>
    </g>
</svg>